<svg id="visual" viewBox="0 0 540 960" width="540" height="960" xmlns="http://www.w3.org/2000/svg" xmlns:xlink="http://www.w3.org/1999/xlink" version="1.1"><rect x="0" y="0" width="540" height="960" fill="#f2f2f2"></rect><defs><linearGradient id="grad1_0" x1="0%" y1="100%" x2="100%" y2="0%"><stop offset="30%" stop-color="#f2f2f2" stop-opacity="1"></stop><stop offset="70%" stop-color="#f2f2f2" stop-opacity="1"></stop></linearGradient></defs><defs><linearGradient id="grad2_0" x1="0%" y1="100%" x2="100%" y2="0%"><stop offset="30%" stop-color="#f2f2f2" stop-opacity="1"></stop><stop offset="70%" stop-color="#f2f2f2" stop-opacity="1"></stop></linearGradient></defs><g transform="translate(540, 960)"><path d="M-54 0C-52.1 -9.1 -50.2 -18.2 -45.9 -26.5C-41.6 -34.8 -35 -42.3 -27 -46.8C-19 -51.2 -9.5 -52.6 0 -54L0 0Z" fill="#13304f"></path></g><g transform="translate(0, 0)"><path d="M54 0C51.6 8.8 49.2 17.7 45 26C40.8 34.3 34.8 42.2 27 46.8C19.2 51.3 9.6 52.7 0 54L0 0Z" fill="#13304f"></path></g></svg>