<svg id="visual" viewBox="0 0 960 540" width="960" height="540" xmlns="http://www.w3.org/2000/svg" xmlns:xlink="http://www.w3.org/1999/xlink" version="1.1"><rect x="0" y="0" width="960" height="540" fill="#f0f2f4"></rect><path d="M0 102L14.5 97C29 92 58 82 87.2 75.8C116.3 69.7 145.7 67.3 174.8 72.7C204 78 233 91 262 92.8C291 94.7 320 85.3 349 76.2C378 67 407 58 436.2 55.2C465.3 52.3 494.7 55.7 523.8 61.2C553 66.7 582 74.3 611 79.7C640 85 669 88 698 85.5C727 83 756 75 785.2 68.8C814.3 62.7 843.7 58.3 872.8 65.8C902 73.3 931 92.7 945.5 102.3L960 112L960 0L945.5 0C931 0 902 0 872.8 0C843.7 0 814.3 0 785.2 0C756 0 727 0 698 0C669 0 640 0 611 0C582 0 553 0 523.8 0C494.7 0 465.3 0 436.2 0C407 0 378 0 349 0C320 0 291 0 262 0C233 0 204 0 174.8 0C145.7 0 116.3 0 87.2 0C58 0 29 0 14.5 0L0 0Z" fill="#13304f" stroke-linecap="round" stroke-linejoin="miter"></path></svg>